<svg id="SvgjsSvg1009" xmlns="http://www.w3.org/2000/svg" version="1.1" xmlns:xlink="http://www.w3.org/1999/xlink" xmlns:svgjs="http://svgjs.com/svgjs" width="26" height="26" viewBox="0 0 26 26"><title>base</title><desc>Created with Avocode.</desc><defs id="SvgjsDefs1010"></defs><path id="SvgjsPath1011" d="M611 4612.2C618.069 4612.2 623.8 4617.929999999999 623.8 4625C623.8 4632.07 618.069 4637.8 611 4637.8C603.931 4637.8 598.2 4632.070000000001 598.2 4625C598.2 4617.93 603.931 4612.2 611 4612.2Z " fill="#3b5998" fill-opacity="1" transform="matrix(1,0,0,1,-598,-4612)"></path><path id="SvgjsPath1012" d="M612.558 4621.01H614.208V4618.570000000001H612.269V4618.580000000001C609.92 4618.670000000001 609.438 4619.990000000001 609.396 4621.380000000001H609.391V4622.590000000001H607.7919999999999V4624.980000000001H609.391V4631.370000000002H611.803V4624.980000000001H613.778L614.158 4622.590000000001H611.803V4621.8600000000015C611.803 4621.390000000001 612.114 4621.010000000001 612.558 4621.010000000001Z " fill="#ffffff" fill-opacity="1" transform="matrix(1,0,0,1,-598,-4612)"></path></svg>