<svg id="SvgjsSvg1000" xmlns="http://www.w3.org/2000/svg" version="1.1" xmlns:xlink="http://www.w3.org/1999/xlink" xmlns:svgjs="http://svgjs.com/svgjs" width="113" height="19" viewBox="0 0 113 19"><title>Bouncy</title><desc>Created with Avocode.</desc><defs id="SvgjsDefs1001"></defs><path id="SvgjsPath1007" d="M631.823 4532.95V4529.7H635.122C635.972 4529.7 636.747 4530.429999999999 636.747 4531.33C636.747 4532.23 636.0219999999999 4532.95 635.122 4532.95ZM631.823 4525.58V4522.33H634.198C635.097 4522.33 635.822 4523.05 635.822 4523.95C635.822 4524.849999999999 635.097 4525.58 634.198 4525.58ZM636.147 4537C639.1210000000001 4537 641.6460000000001 4534.48 641.6460000000001 4531.5C641.6460000000001 4529.8 640.796 4528.23 639.5210000000001 4527.2C640.2460000000001 4526.28 640.7210000000001 4525.099999999999 640.7210000000001 4523.83C640.7210000000001 4520.83 638.1720000000001 4518.25 635.1720000000001 4518.25H626.8990000000001V4537ZM644.224 4527.65C644.224 4532.83 648.398 4537 653.572 4537C658.746 4537 662.945 4532.83 662.945 4527.65C662.945 4522.48 658.7460000000001 4518.25 653.572 4518.25C648.398 4518.25 644.224 4522.48 644.224 4527.65ZM658.046 4527.63C658.046 4530.08 656.046 4532.1 653.572 4532.1C651.123 4532.1 649.123 4530.08 649.123 4527.63C649.123 4525.150000000001 651.123 4523.150000000001 653.572 4523.150000000001C656.046 4523.150000000001 658.046 4525.150000000001 658.046 4527.63ZM670.798 4518.25H665.849V4529.6C665.849 4533.7300000000005 669.123 4537 673.2470000000001 4537C677.321 4537 680.6460000000001 4533.73 680.6460000000001 4529.6V4518.25H675.6970000000001V4529.53C675.6970000000001 4530.88 674.5970000000001 4531.98 673.2470000000001 4531.98C671.898 4531.98 670.7980000000001 4530.879999999999 670.7980000000001 4529.53ZM700.195 4537V4518.25H695.272V4527.1L686.399 4518.25H684.399V4537H689.323V4528.13L698.1709999999999 4537ZM718.245 4520.98C716.546 4519.28 714.221 4518.25 711.647 4518.25C706.4730000000001 4518.25 702.274 4522.45 702.274 4527.63C702.274 4532.8 706.473 4537 711.647 4537C714.2460000000001 4537 716.596 4535.92 718.2950000000001 4534.23L714.796 4530.78C714.0210000000001 4531.58 712.922 4532.03 711.647 4532.03C709.0980000000001 4532.03 707.248 4530.179999999999 707.248 4527.63C707.248 4525.08 709.0980000000001 4523.2300000000005 711.647 4523.2300000000005C712.922 4523.2300000000005 714.0210000000001 4523.68 714.796 4524.450000000001ZM738.72 4518.25H733.046L729.422 4524.5L725.823 4518.25H720.15L726.9979999999999 4530.1V4537H731.872V4530.1Z " fill="#ffffff" fill-opacity="1" transform="matrix(1,0,0,1,-626,-4518)"></path><path id="SvgjsPath1008" d="M631.823 4532.95V4529.7H635.122C635.972 4529.7 636.747 4530.429999999999 636.747 4531.33C636.747 4532.23 636.0219999999999 4532.95 635.122 4532.95ZM631.823 4525.58V4522.33H634.198C635.097 4522.33 635.822 4523.05 635.822 4523.95C635.822 4524.849999999999 635.097 4525.58 634.198 4525.58ZM636.147 4537C639.1210000000001 4537 641.6460000000001 4534.48 641.6460000000001 4531.5C641.6460000000001 4529.8 640.796 4528.23 639.5210000000001 4527.2C640.2460000000001 4526.28 640.7210000000001 4525.099999999999 640.7210000000001 4523.83C640.7210000000001 4520.83 638.1720000000001 4518.25 635.1720000000001 4518.25H626.8990000000001V4537ZM644.224 4527.65C644.224 4532.83 648.398 4537 653.572 4537C658.746 4537 662.945 4532.83 662.945 4527.65C662.945 4522.48 658.7460000000001 4518.25 653.572 4518.25C648.398 4518.25 644.224 4522.48 644.224 4527.65ZM658.046 4527.63C658.046 4530.08 656.046 4532.1 653.572 4532.1C651.123 4532.1 649.123 4530.08 649.123 4527.63C649.123 4525.150000000001 651.123 4523.150000000001 653.572 4523.150000000001C656.046 4523.150000000001 658.046 4525.150000000001 658.046 4527.63ZM670.798 4518.25H665.849V4529.6C665.849 4533.7300000000005 669.123 4537 673.2470000000001 4537C677.321 4537 680.6460000000001 4533.73 680.6460000000001 4529.6V4518.25H675.6970000000001V4529.53C675.6970000000001 4530.88 674.5970000000001 4531.98 673.2470000000001 4531.98C671.898 4531.98 670.7980000000001 4530.879999999999 670.7980000000001 4529.53ZM700.195 4537V4518.25H695.272V4527.1L686.399 4518.25H684.399V4537H689.323V4528.13L698.1709999999999 4537ZM718.245 4520.98C716.546 4519.28 714.221 4518.25 711.647 4518.25C706.4730000000001 4518.25 702.274 4522.45 702.274 4527.63C702.274 4532.8 706.473 4537 711.647 4537C714.2460000000001 4537 716.596 4535.92 718.2950000000001 4534.23L714.796 4530.78C714.0210000000001 4531.58 712.922 4532.03 711.647 4532.03C709.0980000000001 4532.03 707.248 4530.179999999999 707.248 4527.63C707.248 4525.08 709.0980000000001 4523.2300000000005 711.647 4523.2300000000005C712.922 4523.2300000000005 714.0210000000001 4523.68 714.796 4524.450000000001ZM738.72 4518.25H733.046L729.422 4524.5L725.823 4518.25H720.15L726.9979999999999 4530.1V4537H731.872V4530.1Z " fill="#323a45" fill-opacity="1" transform="matrix(1,0,0,1,-626,-4518)"></path></svg>