<svg id="SvgjsSvg1021" xmlns="http://www.w3.org/2000/svg" version="1.1" xmlns:xlink="http://www.w3.org/1999/xlink" xmlns:svgjs="http://svgjs.com/svgjs" width="26" height="26" viewBox="0 0 26 26"><title>base</title><desc>Created with Avocode.</desc><defs id="SvgjsDefs1022"></defs><path id="SvgjsPath1023" d="M719 4612.2C726.069 4612.2 731.8 4617.929999999999 731.8 4625C731.8 4632.07 726.069 4637.8 719 4637.8C711.931 4637.8 706.2 4632.070000000001 706.2 4625C706.2 4617.93 711.931 4612.2 719 4612.2Z " fill="#3f729b" fill-opacity="1" transform="matrix(1,0,0,1,-706,-4612)"></path><path id="SvgjsPath1024" d="M723.418 4617.8H714.582C713.047 4617.8 711.798 4619.05 711.798 4620.58V4629.42C711.798 4630.95 713.047 4632.2 714.582 4632.2H723.418C724.953 4632.2 726.202 4630.95 726.202 4629.42V4620.58C726.202 4619.05 724.953 4617.8 723.418 4617.8ZM724.61 4619.41V4621.8L722.202 4621.81L722.194 4619.410000000001ZM719 4622.59C720.997 4622.59 721.41 4624.47 721.41 4625C721.41 4626.33 720.328 4627.41 719 4627.41C717.671 4627.41 716.59 4626.33 716.59 4625C716.59 4624.47 717.003 4622.59 719 4622.59ZM724.624 4629.24C724.624 4630 724.004 4630.62 723.243 4630.62H714.7320000000001C713.9700000000001 4630.62 713.3510000000001 4630 713.3510000000001 4629.24V4623.4H715.3510000000001C715.1660000000002 4623.849999999999 715.0610000000001 4624.48 715.0610000000001 4625C715.0610000000001 4627.17 716.8280000000002 4628.94 719.0000000000001 4628.94C721.1720000000001 4628.94 722.9380000000001 4627.169999999999 722.9380000000001 4625C722.9380000000001 4624.48 722.8330000000001 4623.85 722.6480000000001 4623.4H724.6240000000001Z " fill="#ffffff" fill-opacity="1" transform="matrix(1,0,0,1,-706,-4612)"></path></svg>