<svg id="SvgjsSvg1017" xmlns="http://www.w3.org/2000/svg" version="1.1" xmlns:xlink="http://www.w3.org/1999/xlink" xmlns:svgjs="http://svgjs.com/svgjs" width="26" height="26" viewBox="0 0 26 26"><title>base</title><desc>Created with Avocode.</desc><defs id="SvgjsDefs1018"></defs><path id="SvgjsPath1019" d="M683 4612.2C690.069 4612.2 695.8 4617.929999999999 695.8 4625C695.8 4632.07 690.069 4637.8 683 4637.8C675.931 4637.8 670.2 4632.070000000001 670.2 4625C670.2 4617.93 675.931 4612.2 683 4612.2Z " fill="#0e76a8" fill-opacity="1" transform="matrix(1,0,0,1,-670,-4612)"></path><path id="SvgjsPath1020" d="M677 4630V4622H680V4630ZM689.406 4625.25V4629.79H687.0079999999999V4625.43C687.0079999999999 4624.54 686.7499999999999 4623.64 685.699 4623.64C684.6469999999999 4623.64 683.808 4624.54 683.808 4625.450000000001V4629.790000000001H681.402V4621.77H683.808V4622.88C684.546 4621.95 685.587 4621.52 686.75 4621.52C687.914 4621.52 689.406 4622.1 689.406 4625.25ZM678.6 4618.6C679.263 4618.6 679.8000000000001 4619.14 679.8000000000001 4619.8C679.8000000000001 4620.46 679.263 4621 678.6 4621C677.937 4621 677.4 4620.46 677.4 4619.8C677.4 4619.14 677.937 4618.6 678.6 4618.6Z " fill="#ffffff" fill-opacity="1" transform="matrix(1,0,0,1,-670,-4612)"></path></svg>