<svg id="SvgjsSvg1013" xmlns="http://www.w3.org/2000/svg" version="1.1" xmlns:xlink="http://www.w3.org/1999/xlink" xmlns:svgjs="http://svgjs.com/svgjs" width="26" height="26" viewBox="0 0 26 26"><title>base</title><desc>Created with Avocode.</desc><defs id="SvgjsDefs1014"></defs><path id="SvgjsPath1015" d="M647 4612.2C654.069 4612.2 659.8 4617.929999999999 659.8 4625C659.8 4632.07 654.069 4637.8 647 4637.8C639.931 4637.8 634.2 4632.070000000001 634.2 4625C634.2 4617.93 639.931 4612.2 647 4612.2Z " fill="#26a6d1" fill-opacity="1" transform="matrix(1,0,0,1,-634,-4612)"></path><path id="SvgjsPath1016" d="M655.002 4620.82C654.443 4621.0599999999995 653.842 4621.23 653.2099999999999 4621.299999999999C653.8549999999999 4620.919999999999 654.3489999999999 4620.329999999999 654.5819999999999 4619.619999999999C653.9789999999999 4619.969999999999 653.3119999999999 4620.219999999999 652.6009999999999 4620.359999999999C652.0319999999999 4619.769999999999 651.2219999999999 4619.399999999999 650.3249999999999 4619.399999999999C648.602 4619.399999999999 647.2049999999999 4620.759999999998 647.2049999999999 4622.4299999999985C647.2049999999999 4622.669999999998 647.233 4622.899999999999 647.286 4623.119999999998C644.694 4622.989999999998 642.395 4621.789999999998 640.856 4619.959999999998C640.588 4620.399999999998 640.434 4620.919999999998 640.434 4621.479999999999C640.434 4622.529999999999 640.985 4623.459999999998 641.822 4623.999999999999C641.311 4623.979999999999 640.829 4623.849999999999 640.409 4623.619999999999C640.409 4623.629999999999 640.409 4623.649999999999 640.409 4623.659999999999C640.409 4625.129999999999 641.484 4626.3499999999985 642.911 4626.629999999999C642.649 4626.699999999999 642.3739999999999 4626.73 642.0889999999999 4626.73C641.8879999999999 4626.73 641.693 4626.709999999999 641.502 4626.679999999999C641.899 4627.879999999999 643.0509999999999 4628.759999999999 644.4159999999999 4628.78C643.348 4629.59 642.0039999999999 4630.08 640.5419999999999 4630.08C640.29 4630.08 640.0419999999999 4630.0599999999995 639.7979999999999 4630.03C641.1789999999999 4630.889999999999 642.8179999999999 4631.4 644.5799999999999 4631.4C650.3169999999999 4631.4 653.454 4626.78 653.454 4622.78C653.454 4622.65 653.452 4622.5199999999995 653.4459999999999 4622.389999999999C654.055 4621.959999999999 654.584 4621.429999999999 655.002 4620.82Z " fill="#ffffff" fill-opacity="1" transform="matrix(1,0,0,1,-634,-4612)"></path></svg>