<svg id="SvgjsSvg1025" xmlns="http://www.w3.org/2000/svg" version="1.1" xmlns:xlink="http://www.w3.org/1999/xlink" xmlns:svgjs="http://svgjs.com/svgjs" width="26" height="26" viewBox="0 0 26 26"><title>base</title><desc>Created with Avocode.</desc><defs id="SvgjsDefs1026"></defs><path id="SvgjsPath1027" d="M755 4612.2C762.069 4612.2 767.8 4617.929999999999 767.8 4625C767.8 4632.07 762.069 4637.8 755 4637.8C747.931 4637.8 742.2 4632.070000000001 742.2 4625C742.2 4617.93 747.931 4612.2 755 4612.2Z " fill="#86c9ef" fill-opacity="1" transform="matrix(1,0,0,1,-742,-4612)"></path><path id="SvgjsPath1028" d="M747.8 4622.6C748.997 4621.64 750.699 4619.55 752.026 4619.55C753.352 4619.55 753.6769999999999 4621.110000000001 753.858 4622.53C754.04 4623.95 754.5619999999999 4627.0599999999995 755.262 4627.0599999999995C755.9649999999999 4627.0599999999995 757.564 4624.3099999999995 757.473 4623.249999999999C757.382 4622.189999999999 756.2249999999999 4622.349999999999 755.588 4622.649999999999C756.173 4620.529999999999 757.525 4619.399999999999 759.254 4619.399999999999C760.9830000000001 4619.399999999999 761.4 4620.619999999999 761.4 4622.119999999999C761.4 4624.399999999999 756.771 4631.399999999999 753.976 4631.399999999999C752.246 4631.399999999999 751.818 4628.8499999999985 751.467 4627.589999999998C751.115 4626.329999999998 750.4259999999999 4623.019999999999 749.62 4622.809999999999C749.307 4622.759999999998 748.424 4623.459999999998 748.424 4623.459999999998Z " fill="#ffffff" fill-opacity="1" transform="matrix(1,0,0,1,-742,-4612)"></path></svg>